<svg viewBox="0 0 16 17" fill="none" xmlns="http://www.w3.org/2000/svg">
<g>
<path d="M13.3332 8.66423L13.3332 14.6409C13.3332 14.9854 12.9437 15.1856 12.6635 14.9851L11.8281 14.3871C11.6683 14.2728 11.4509 14.2834 11.303 14.4128L10.0563 15.5033C9.89673 15.6429 9.6585 15.6429 9.49893 15.5033L7.99984 14.192L6.50075 15.5033C6.34117 15.6429 6.10295 15.6429 5.94337 15.5033L4.69666 14.4128C4.54879 14.2834 4.33137 14.2728 4.17162 14.3872L3.33614 14.9851C3.05602 15.1856 2.66651 14.9854 2.66651 14.6409L2.6665 8.66423M2.6665 8.77711L2.6665 2.80044C2.6665 2.45597 3.05602 2.25575 3.33614 2.45623L4.17162 3.05419C4.33137 3.16853 4.54879 3.15792 4.69666 3.02858L5.94337 1.938C6.10294 1.79841 6.34117 1.79841 6.50075 1.938L7.99984 3.24934L9.49893 1.938C9.6585 1.79841 9.89673 1.79841 10.0563 1.938L11.303 3.02858C11.4509 3.15792 11.6683 3.16853 11.8281 3.05419L12.6635 2.45623C12.9437 2.25575 13.3332 2.45597 13.3332 2.80044L13.3332 8.77711" stroke="currentColor" stroke-linecap="round" stroke-linejoin="round"/>
<path d="M4.6665 10.8405H8.1122M4.69147 8.83693H11.3332M4.69147 6.80518H11.3332" stroke="currentColor" stroke-linecap="round" stroke-linejoin="round"/>
</g>
</svg>
